<svg version="1.1" id="Layer_1" xmlns="http://www.w3.org/2000/svg" xmlns:xlink="http://www.w3.org/1999/xlink" x="0px" y="0px"
	 width="100%" viewBox="0 0 816 672" enable-background="new 0 0 816 672" xml:space="preserve">
<path fill="#000000" opacity="1.000000" stroke="none" 
	d="
M428.024994,286.038086 
	C420.526794,279.385315 411.763031,278.853119 402.747864,281.487183 
	C393.485779,284.193359 387.576630,290.467377 386.443481,300.286926 
	C385.433624,309.037964 384.955048,317.850769 384.265411,326.638184 
	C383.598999,335.129974 380.923370,342.900452 375.925446,349.820099 
	C374.367035,351.977753 372.258392,353.889313 374.552185,357.335693 
	C364.231384,357.335693 354.927704,357.284302 345.625122,357.363861 
	C342.411957,357.391327 341.984497,355.128052 341.314087,352.846039 
	C330.267242,315.242065 352.585754,274.413177 390.150635,263.536469 
	C431.996735,251.420151 473.010345,275.521820 482.711761,317.975342 
	C485.357086,329.551270 484.775574,341.071869 481.884827,352.548920 
	C481.029266,355.945770 479.390381,357.561707 475.639862,357.446869 
	C467.817810,357.207275 459.982025,357.283051 452.154755,357.407898 
	C448.930206,357.459320 446.561066,357.000610 446.549622,353.021179 
	C446.546478,351.919067 446.008759,350.729828 445.447784,349.731415 
	C438.083405,336.624115 436.814697,322.268524 436.834930,307.668091 
	C436.843597,301.394501 436.013275,295.378540 432.475769,290.021393 
	C431.465881,288.492065 430.294708,287.067108 428.283752,286.120392 
	C427.990295,286.003662 428.024994,286.038086 428.024994,286.038086 
z"/>
<path fill="#000000" opacity="1.000000" stroke="none" 
	d="
M427.970673,285.989075 
	C434.210999,292.590393 436.043640,300.887177 435.874023,309.490326 
	C435.590424,323.875580 437.569611,337.586548 444.337372,350.516479 
	C446.991699,355.587616 445.495728,357.386902 439.812164,357.390289 
	C421.351471,357.401245 402.890778,357.426575 384.430145,357.394287 
	C382.289215,357.390533 380.036621,357.418854 378.036377,356.792084 
	C375.481934,355.991638 374.059204,354.157898 376.180695,351.507477 
	C385.297363,340.117981 386.161438,326.496460 386.753448,312.786133 
	C386.903839,309.303223 387.297058,305.826538 387.340149,302.343994 
	C387.544495,285.837097 406.358185,276.994904 421.450531,283.066833 
	C423.453461,283.872650 425.371979,284.888275 427.677277,285.922424 
	C428.024994,286.038086 427.990295,286.003662 427.970673,285.989075 
M425.016785,308.424164 
	C428.272705,308.301147 428.188599,306.157928 427.464874,303.989288 
	C427.003052,302.605377 425.595184,301.945343 424.324219,302.921478 
	C422.167877,304.577667 422.378265,306.448792 425.016785,308.424164 
M402.521912,304.110352 
	C401.631836,302.579163 400.478516,301.827026 398.924988,303.197998 
	C397.958252,304.051086 397.937286,305.277008 398.271973,306.446747 
	C398.620728,307.665558 399.364594,308.636444 400.766846,308.329865 
	C402.654449,307.917114 402.788452,306.378937 402.521912,304.110352 
z"/>
<path fill="#000000" opacity="1.000000" stroke="none" 
	d="
M380.001892,384.973022 
	C407.039459,384.972687 433.577606,384.972687 460.115784,384.972687 
	C460.236847,385.615448 460.357941,386.258179 460.479034,386.900940 
	C447.115051,399.737396 430.638519,405.803711 412.276001,406.070892 
	C393.273926,406.347351 376.396423,400.024353 362.681122,386.214905 
	C368.342255,384.509216 373.956207,385.252319 380.001892,384.973022 
z"/>
<path fill="#000000" opacity="1.000000" stroke="none" 
	d="
M443.610992,366.841187 
	C445.751862,365.946503 445.894409,367.086975 445.499817,368.398987 
	C444.550018,371.556763 443.795929,374.822754 441.603607,377.363525 
	C439.422821,377.537354 439.355408,375.558807 438.111542,374.288635 
	C437.274994,375.416382 436.466583,376.506195 435.730804,377.498108 
	C430.976074,376.530060 434.163849,368.041809 427.149445,369.098297 
	C430.589478,373.140991 425.055908,374.440247 425.822083,378.454529 
	C421.737488,374.823151 423.205658,371.272491 423.377563,368.082550 
	C423.494598,365.911224 425.403503,365.917084 427.124176,365.699097 
	C431.488831,365.146210 434.136810,366.951508 434.907654,371.398560 
	C437.350342,370.160126 435.901001,367.881622 436.850677,366.268707 
	C439.800598,366.537994 438.807800,370.014343 441.158295,370.865662 
	C443.021851,370.551636 442.382874,368.257141 443.610992,366.841187 
z"/>
<path fill="#000000" opacity="1.000000" stroke="none" 
	d="
M411.814850,368.153290 
	C409.264313,368.264984 407.961853,369.319550 408.159393,372.147675 
	C408.274658,373.798218 408.885925,375.768829 407.125519,377.206665 
	C404.881348,376.620117 405.111298,374.671906 405.140717,373.221680 
	C405.238068,368.422333 403.080566,367.420166 398.682861,369.264557 
	C399.738983,371.869385 404.703033,373.951111 400.467712,377.327454 
	C398.031097,379.269897 395.831787,378.219940 394.189148,375.290619 
	C393.998566,374.987610 393.966675,375.023682 393.966675,375.023682 
	C395.372131,374.557861 396.842072,375.866852 398.237885,374.926483 
	C398.258087,374.555908 398.404694,374.166077 398.272003,373.940521 
	C397.126251,371.992493 393.741638,371.105011 395.266571,367.907318 
	C396.663727,364.977600 399.401428,365.761993 401.797638,365.887573 
	C405.119476,366.061737 408.685455,364.421814 411.827332,367.565674 
	C411.969116,367.990387 411.814850,368.153290 411.814850,368.153290 
z"/>
<path fill="#000000" opacity="1.000000" stroke="none" 
	d="
M455.129272,369.305786 
	C455.296417,366.591949 456.501373,365.607330 458.766235,365.816254 
	C460.891052,366.012268 462.098816,367.063416 462.328644,369.250031 
	C462.466888,370.565094 462.825317,371.855621 462.999298,373.168518 
	C463.389832,376.115509 461.659088,377.502258 459.103149,377.992493 
	C456.190613,378.551117 455.237976,376.753998 455.136139,374.236389 
	C455.075592,372.739624 455.103912,371.239227 455.129272,369.305786 
z"/>
<path fill="#000000" opacity="1.000000" stroke="none" 
	d="
M412.042053,367.905151 
	C417.197388,364.470490 421.434845,365.758545 422.106049,370.881439 
	C422.461121,373.591583 421.442474,375.757477 419.210205,377.295227 
	C417.392029,378.547729 415.462128,378.583496 413.654419,377.294891 
	C410.563538,375.091553 410.558716,372.097809 411.740784,368.512207 
	C411.814850,368.153290 411.969116,367.990387 412.042053,367.905151 
M415.900574,374.922882 
	C419.214783,374.917419 418.929382,372.607635 418.601196,370.476929 
	C418.414886,369.267365 417.444061,368.197968 416.161194,368.809021 
	C413.989532,369.843567 413.898010,371.764404 414.771057,373.795044 
	C414.895111,374.083557 415.163055,374.310242 415.900574,374.922882 
z"/>
<path fill="#000000" opacity="1.000000" stroke="none" 
	d="
M394.011871,374.967529 
	C391.723450,377.110260 389.405121,379.676117 385.927734,377.384399 
	C383.353210,375.687622 382.407288,373.074707 383.525574,370.049255 
	C384.432739,367.594940 385.932373,365.673187 388.884247,365.766968 
	C392.062378,365.867981 393.519531,367.956757 394.102692,370.753052 
	C394.331177,371.848633 394.121460,373.035645 394.039001,374.602356 
	C393.966675,375.023682 393.998566,374.987610 394.011871,374.967529 
M390.797516,371.514557 
	C390.611908,369.949738 390.259369,368.337463 388.218994,368.725952 
	C386.700043,369.015137 386.392853,370.490204 386.361877,371.865692 
	C386.330078,373.277069 386.757629,374.710602 388.213745,375.017456 
	C390.305359,375.458221 390.496643,373.687317 390.797516,371.514557 
z"/>
<path fill="#000000" opacity="1.000000" stroke="none" 
	d="
M381.732300,375.476379 
	C381.191437,377.154419 380.070953,378.125916 379.360413,376.457367 
	C376.234802,369.117401 374.971985,374.989532 372.693329,378.135193 
	C370.897064,373.804199 371.571411,370.242249 372.183594,366.597290 
	C375.136536,366.705536 373.611328,370.419647 376.254211,370.570648 
	C379.215332,370.739868 378.400940,367.655365 380.161835,366.295532 
	C382.474762,369.088165 381.368103,372.279907 381.732300,375.476379 
z"/>
<path fill="#000000" opacity="1.000000" stroke="none" 
	d="
M369.231995,373.824799 
	C369.595947,376.971191 368.220612,378.192688 365.566162,378.250336 
	C362.690277,378.312836 360.703552,376.863220 359.951050,374.236328 
	C359.134674,371.386444 359.403931,368.489655 362.184326,366.678314 
	C364.454712,365.199188 366.749420,365.129333 368.901154,367.752228 
	C366.882111,369.494537 362.968567,367.634583 362.634338,371.387848 
	C362.452332,373.431946 363.148926,374.946411 365.937164,375.567383 
	C367.433838,376.310669 365.864136,370.030762 369.231995,373.824799 
z"/>
<path fill="#000000" opacity="1.000000" stroke="none" 
	d="
M451.934509,365.925537 
	C452.422028,366.099915 452.691956,366.229706 452.678223,366.276855 
	C451.899536,368.948242 452.168091,371.897034 450.572357,374.320984 
	C450.480194,376.012177 453.104401,375.238525 452.918488,377.291840 
	C451.282867,378.585144 449.021088,378.861420 447.804474,377.226654 
	C445.706604,374.407745 446.700256,370.856079 447.133484,367.669861 
	C447.472137,365.179626 449.833405,365.852966 451.934509,365.925537 
z"/>
</svg>