<svg width="578" height="278" viewBox="0 0 578 278" fill="none" xmlns="http://www.w3.org/2000/svg">
<g clip-path="url(#clip0_322_129)">
<path d="M74.6968 133.145C74.7161 128.364 74.7586 123.583 74.7434 118.802C74.7373 116.87 75.3136 114.491 74.4203 113.076C66.0565 99.8258 57.377 86.7758 48.9045 73.5937C44.7402 67.1146 40.8334 60.4702 36.7731 53.9235C36.1279 52.8833 35.2871 51.9645 33.9064 50.1707C28.9385 77.2413 24.1647 103.254 19.3378 129.557C13.111 129.557 7.47673 129.557 1.42121 129.778C1 125.643 1 121.286 1.37454 116.714C2.29833 115.41 3.14644 114.373 3.3487 113.222C4.73298 105.346 5.86259 97.4251 7.30137 89.5601C9.6201 76.885 12.0949 64.2383 14.5407 51.5868C16.0515 43.7717 17.8264 36.0023 19.1279 28.1535C20.6232 19.1363 21.7265 10.054 23 1C23.75 1 24.5 1 25.625 1C30.2091 8.13927 34.2443 15.3882 38.6616 22.3962C49.7401 39.9719 60.9868 57.4415 72.1754 74.9476C78.4293 84.7328 84.7019 94.506 91.0289 104.928C92.3095 107.394 93.5272 109.216 95.019 111.275C97.092 112.3 98.8974 113.073 100.689 113.878C106.886 116.662 110.544 123.353 108.946 128.961C106.505 137.533 100.777 141.276 91.8462 140.136C85.9735 139.386 81.3086 133.362 80.9315 126.779C80.7773 124.088 79.5335 121.46 78.7854 118.803C78.2908 118.886 77.7963 118.968 77.3017 119.051C75.0359 123.467 75.8616 128.191 76.0001 132.953C75.2759 133.059 74.9864 133.102 74.6968 133.145Z" fill="#0066FB"/>
<path d="M267.232 126.493C265.874 134.649 264.57 142.385 263.153 150.1C261.269 160.362 259.287 170.606 257.365 180.862C254.995 193.51 252.64 206.162 250.287 218.813C249.78 221.543 249.085 224.266 248.925 227.019C248.851 228.286 249.61 230.501 250.431 230.734C252.165 231.224 254.848 231.416 255.942 230.416C257.727 228.787 259.158 226.236 259.673 223.845C261.453 215.581 262.779 207.219 264.268 198.893C265.642 191.216 266.955 183.528 268.381 175.862C270.682 163.499 273.101 151.158 275.379 138.791C276.833 130.895 278.308 122.994 279.399 115.044C279.895 111.429 281.045 109.744 284.991 109.926C291.246 110.215 297.524 110.003 303.894 110.003C300.61 128.471 297.482 146.278 294.271 164.07C291.052 181.909 287.756 199.735 284.481 217.564C283.95 220.457 283.132 223.32 282.881 226.234C282.748 227.775 283.137 230.4 284.02 230.763C285.639 231.429 288.081 231.329 289.647 230.519C291.01 229.813 292.142 227.799 292.504 226.17C294.097 219.008 295.429 211.787 296.748 204.567C298.205 196.593 299.514 188.593 300.942 180.614C302.365 172.662 303.842 164.719 305.321 156.777C307.232 146.517 309.193 136.267 311.082 126.004C311.728 122.498 312.352 118.978 312.744 115.438C313.139 111.871 314.213 109.681 318.516 109.919C324.622 110.258 330.761 110.005 337.325 110.005C335.158 122.15 333.101 133.981 330.923 145.791C328.675 157.984 326.324 170.158 323.991 182.335C321.57 194.966 319.129 207.592 316.669 220.215C315.852 224.409 315.376 228.731 314.009 232.745C307.966 250.497 288.232 257.479 272.19 247.702C270.498 246.671 269.535 244.443 268.545 243.171C262.935 245.96 257.668 249.303 251.929 251.278C240.567 255.189 229.56 250.162 226.132 239.412C224.779 235.168 224.779 230.177 225.386 225.692C226.501 217.446 228.58 209.333 230.15 201.145C232.393 189.443 234.559 177.727 236.721 166.01C238.261 157.666 239.752 149.313 241.244 140.96C242.906 131.654 244.4 122.314 246.361 113.072C246.63 111.804 249.13 110.225 250.666 110.147C257.139 109.821 263.638 110.009 270.588 110.009C269.443 115.493 268.339 120.778 267.232 126.493Z" fill="#0065FB"/>
<path d="M388.484 111.522C394.414 114.587 398.708 118.491 397.905 125.477C396.747 135.569 395.585 145.673 393.948 155.694C392.292 165.834 389.75 175.832 388.17 185.981C386.83 194.585 382.374 199.841 372.794 201.864C383.64 208.99 380.763 218.716 379.73 228.188C379.192 233.121 379.541 238.145 379.276 243.117C379.123 246 378.546 248.86 378.168 251.662C370.127 251.662 362.83 251.662 355.262 251.662C355.892 240.011 356.599 228.557 357.094 217.094C357.348 211.222 356.59 210.73 350.216 211.53C348.035 223.857 345.922 236.243 343.54 248.577C343.299 249.823 341.471 251.64 340.316 251.688C333.348 251.979 326.362 251.833 319.452 251.833C328.007 204.602 336.52 157.61 345.143 110.006C355.799 110.006 366.407 109.89 377.01 110.07C380.726 110.133 384.43 110.925 388.484 111.522ZM358.814 190.491C362.962 189.696 364.938 186.677 365.718 182.994C366.797 177.897 367.32 172.686 368.235 167.551C369.794 158.799 371.465 150.067 373.108 141.33C373.464 139.442 373.972 137.581 374.291 135.688C374.99 131.553 371.593 129.966 364.763 131.329C361.215 150.895 357.655 170.529 354.05 190.408C355.452 190.482 356.745 190.55 358.814 190.491ZM373.254 202.078C373.149 201.865 373.057 201.644 372.923 201.451C372.908 201.428 372.668 201.56 372.532 201.62C372.642 201.847 372.753 202.073 373.254 202.078Z" fill="#0065FB"/>
<path d="M420.41 236.479C420.84 234.335 421.039 232.584 421.275 230.508C417.183 230.508 413.576 230.508 409.435 230.508C408.053 236.308 406.841 242.337 405.067 248.195C404.615 249.687 402.432 251.585 400.949 251.673C394.485 252.054 387.985 251.837 380.875 251.837C382.997 243.835 384.984 236.061 387.124 228.328C392.494 208.926 397.944 189.546 403.344 170.152C408.488 151.677 413.703 133.22 418.659 114.694C419.583 111.236 420.927 109.823 424.657 109.92C434.435 110.173 444.223 110.005 454.409 110.005C453.929 116.883 453.595 123.267 453.009 129.628C452.466 135.516 451.481 141.365 450.995 147.256C450.004 159.247 449.261 171.257 448.338 183.254C447.2 198.045 446.097 212.84 444.753 227.613C444.039 235.464 442.846 243.272 441.823 251.473C434.384 251.473 426.845 251.473 418.997 251.473C419.394 246.569 419.786 241.72 420.41 236.479ZM433.256 138.879C433.256 136.512 433.256 134.146 433.256 131.78C433.031 131.802 432.806 131.825 432.582 131.847C426.516 157.744 420.451 183.641 414.372 209.593C424.351 210.225 424.282 210.221 424.943 200.557C425.211 196.65 425.799 192.761 426.337 188.877C427.487 180.589 428.742 172.315 429.874 164.025C430.981 155.921 431.989 147.804 433.256 138.879Z" fill="#0065FB"/>
<path d="M198.002 227.714C196.157 231.34 198.332 231.306 200.508 231.303C206.61 231.295 212.712 231.301 219.59 231.301C217.497 238.186 215.781 244.293 213.672 250.262C213.366 251.128 211.182 251.76 209.861 251.772C197.531 251.885 185.199 251.835 172.868 251.84C169.865 251.841 169.068 251.623 170.267 247.825C172.548 240.597 173.402 232.91 174.737 225.394C176.093 217.764 177.216 210.093 178.62 202.473C180.071 194.593 181.863 186.775 183.28 178.89C185.511 166.479 187.511 154.027 189.686 141.606C191.226 132.808 192.861 124.026 194.53 115.252C194.837 113.637 195.515 112.094 196.096 110.286C210.232 110.286 224.289 110.286 239.287 110.286C238.684 117.097 238.113 123.551 237.481 130.701C231.228 130.701 225.126 130.844 219.035 130.639C216.072 130.54 214.728 131.815 214.29 134.485C212.835 143.341 211.397 152.199 209.848 161.696C216.23 161.696 222.405 161.696 229.523 161.696C228.38 168.481 227.481 174.544 226.2 180.526C226.032 181.309 223.921 182.115 222.685 182.155C217.217 182.331 211.739 182.231 205.847 182.231C203.208 197.468 200.626 212.375 198.002 227.714Z" fill="#0065FA"/>
<path d="M448.542 240.457C450.212 231.725 451.653 223.39 453.242 215.084C455.65 202.502 458.335 189.97 460.578 177.36C462.836 164.67 464.542 151.883 466.782 139.19C468.469 129.632 470.617 120.156 472.629 110.301C479.753 110.301 487.162 110.301 495.798 110.301C488.49 150.676 481.246 190.7 473.887 231.36C490.919 231.36 507.302 231.36 523.957 231.36C522.085 237.819 520.46 243.726 518.592 249.556C518.292 250.493 516.91 251.733 516.022 251.738C493.241 251.858 470.459 251.833 447.06 251.833C447.539 247.859 447.959 244.363 448.542 240.457Z" fill="#0065FA"/>
<path d="M113.13 137.203C115.93 142.531 118.426 148.048 121.587 153.152C131.532 169.205 141.725 185.105 151.843 201.051C152.08 201.424 152.573 201.633 153.729 202.519C155.83 190.209 157.723 178.409 159.893 166.661C161.299 159.051 163.264 151.545 164.703 143.94C166.549 134.185 168.348 124.409 169.686 114.576C170.183 110.926 171.607 109.606 175.034 109.661C179.782 109.737 184.533 109.68 189.678 109.68C180.868 157.731 172.255 204.702 163.381 253.096C160.036 248.369 157.372 244.951 155.074 241.303C141.429 219.633 127.914 197.882 114.258 176.22C108.415 166.95 102.336 157.828 96.1949 147.865C96.0891 146.436 96.1533 145.782 96.5544 145.054C104.547 144.656 108.978 139.659 113.038 134.176C113.158 135.349 113.144 136.276 113.13 137.203Z" fill="#0066FB"/>
<path d="M94.7448 111.038C93.5272 109.216 92.3095 107.394 91.0469 105.29C98.3662 105.385 105.606 106.192 110.959 112.114C112.247 113.538 113.17 115.292 114.063 117.501C113.57 118.41 113.275 118.712 112.698 118.82C107.561 110.357 100.819 106.719 93.9376 108.749C94.2083 109.516 94.4766 110.277 94.7448 111.038Z" fill="#0063E4"/>
<path d="M96.2175 145.128C96.1533 145.782 96.0891 146.436 95.9985 147.583C90.8313 146.287 85.6145 144.682 80.5983 142.596C79.1742 142.003 78.3344 140.007 77.1563 138.191C76.962 137.518 76.77 137.391 76.51 137.35C76.51 137.35 76.5909 137.365 76.6887 137.046C76.8557 136.488 76.9248 136.248 77.1638 135.826C77.3337 135.643 77.6736 135.278 77.893 135.531C82.3029 142.473 88.3712 145.523 96.2175 145.128Z" fill="#0061E3"/>
<path d="M113.445 137.033C113.144 136.276 113.158 135.349 113.08 133.757C113.285 129.413 113.583 125.734 114.226 122.046C115.029 122.017 115.487 121.997 115.946 121.976C118.623 127.439 116.206 132.153 113.445 137.033Z" fill="#005AC9"/>
<path d="M74.7297 133.509C74.9864 133.102 75.2759 133.059 76.212 133.128C77.1302 133.92 77.4019 134.599 77.6736 135.278C77.6736 135.278 77.3337 135.643 76.9844 135.967C76.4165 136.504 76.2099 136.728 76.0151 136.963C75.5976 135.933 75.1801 134.903 74.7297 133.509Z" fill="#0061E3"/>
<path d="M112.98 119.015C113.275 118.712 113.57 118.41 114.058 117.855C114.748 118.218 115.246 118.835 115.428 119.796C114.467 120.433 113.822 120.725 113.118 120.686C113.032 119.909 113.006 119.462 112.98 119.015Z" fill="#005AC9"/>
<path d="M113.177 121.017C113.822 120.725 114.467 120.433 115.376 120.09C115.688 120.474 115.736 120.908 115.865 121.659C115.487 121.996 115.029 122.017 114.005 121.952C113.118 121.656 113.031 121.372 113.177 121.017Z" fill="#0063E4"/>
<path d="M76.1209 137.121C76.2098 136.728 76.4165 136.504 76.8145 136.15C76.9248 136.248 76.8556 136.488 76.6778 137.086C76.5691 137.444 76.2267 137.279 76.1209 137.121Z" fill="#0066FB"/>
<path d="M76.6249 137.546C76.77 137.391 76.962 137.518 77.1135 137.844C77.1411 137.959 76.7398 137.743 76.6249 137.546Z" fill="#0066FB"/>
<path d="M113.118 120.686C113.031 121.372 113.118 121.656 113.66 121.962C113.583 125.734 113.285 129.413 112.945 133.511C108.978 139.659 104.547 144.656 96.5544 145.054C88.3712 145.523 82.3029 142.473 77.893 135.531C77.4019 134.599 77.1302 133.92 76.6466 133.065C75.8616 128.191 75.0359 123.467 77.3017 119.051C77.7963 118.968 78.2909 118.886 78.7854 118.803C79.5335 121.46 80.7773 124.088 80.9315 126.779C81.3086 133.361 85.9735 139.386 91.8463 140.136C100.777 141.276 106.505 137.533 108.946 128.961C110.544 123.353 106.886 116.662 100.689 113.878C98.8974 113.073 97.0921 112.3 95.019 111.275C94.4766 110.277 94.2083 109.516 93.9376 108.749C100.819 106.719 107.561 110.357 112.698 118.82C113.006 119.462 113.032 119.909 113.118 120.686Z" fill="#00060E"/>
<path d="M358.426 190.555C356.745 190.55 355.452 190.482 354.05 190.408C357.655 170.529 361.215 150.895 364.763 131.329C371.593 129.966 374.99 131.553 374.291 135.688C373.972 137.581 373.464 139.442 373.108 141.33C371.465 150.067 369.794 158.799 368.235 167.551C367.32 172.686 366.797 177.897 365.718 182.994C364.938 186.677 362.962 189.696 358.426 190.555Z" fill="#000307"/>
<path d="M433.148 139.286C431.989 147.804 430.981 155.921 429.874 164.025C428.742 172.315 427.487 180.589 426.337 188.877C425.799 192.761 425.211 196.65 424.943 200.557C424.282 210.221 424.351 210.225 414.372 209.593C420.451 183.641 426.516 157.744 432.582 131.847C432.806 131.825 433.031 131.802 433.256 131.78C433.256 134.146 433.256 136.512 433.148 139.286Z" fill="#00050E"/>
</g>
<defs>
<clipPath id="clip0_322_129">
<rect width="578" height="278" fill="white"/>
</clipPath>
</defs>
</svg>
